<?xml version="1.0" encoding="UTF-8" standalone="no"?>
<svg
   xmlns:dc="http://purl.org/dc/elements/1.1/"
   xmlns:cc="http://creativecommons.org/ns#"
   xmlns:rdf="http://www.w3.org/1999/02/22-rdf-syntax-ns#"
   xmlns:svg="http://www.w3.org/2000/svg"
   xmlns="http://www.w3.org/2000/svg"
   id="svg23"
   version="1.1"
   width="148.77812"
   height="134.00014"
   viewBox="0 0 148.77812 134.00035">
  <metadata
     id="metadata27">
    <rdf:RDF>
      <cc:Work
         rdf:about="">
        <dc:format>image/svg+xml</dc:format>
        <dc:type
           rdf:resource="http://purl.org/dc/dcmitype/StillImage" />
        <dc:title></dc:title>
      </cc:Work>
    </rdf:RDF>
  </metadata>
  <defs
     id="defs5">
    <clipPath
       id="a">
      <path
         id="path2"
         d="M 0,425.197 H 425.197 V 0 H 0 Z" />
    </clipPath>
  </defs>
  <path
     d="m 53.212282,2.4359363 c 0.68961,-2.13296503 -0.65024,-3.70713 -3.248025,-1.00076 -10.158095,10.5835447 -11.851005,30.1872647 -8.85698,38.7210297 0.116205,0.332105 0.536575,1.15824 0.11811,1.42621 -0.43053,0.276225 -0.854075,-0.361315 -1.40716,-1.3081 -2.52857,-4.332605 -3.902075,-13.99286 -2.626995,-20.50288 0.05398,-0.276225 0.1016,-0.569595 0.0038,-0.833755 -0.21971,-0.59563 -1.00203,-0.457835 -1.292225,-0.05334 -8.049895,11.24204 -7.62254,31.953835 4.529455,44.467145 6.36397,6.552565 11.66749,11.35634 17.019905,17.48028 3.816985,4.36753 7.47903,8.990965 10.1727,14.15161 2.06629,3.957955 3.467735,8.260084 3.665855,12.743184 0.08953,2.05105 -0.225425,4.03606 -0.74168,6.0217 -0.103505,0.39942 -0.122555,0.99695 0.27051,1.21031 1.56337,0.84963 6.6421,-6.43001 6.77799,-20.575269 0.07113,-7.36219 -2.03834,-14.64056 -4.89076,-21.388705 -2.61239,-6.17982 -6.02615,-12.03452 -10.069195,-17.38757 -13.081,-17.32026 -16.69669,-30.67939 -9.425305,-53.1710897"
     id="path7"
     style="fill:#00ab8e;stroke-width:0.63499999" />
  <path
     d="m 115.02699,41.344291 c 3.51726,-0.78105 6.99135,-0.593725 10.38352,0.53975 6.30618,2.107565 14.37132,11.40079 22.25294,11.353165 0,0 2.02247,-0.17399 0.61912,1.09474 -1.40335,1.26873 -10.2362,9.184005 -29.21254,6.92658 -16.08836,-1.913255 -24.441778,6.3119 -24.916128,6.55447 -0.5715,0.2921 -1.26682,-0.102235 -1.08902,-0.92075 0.44196,-2.035175 5.21716,-13.60805 -0.24829,-28.87345 -7.41489,-20.7137 8.655048,-29.2176197 9.295768,-28.8626547 0.64072,0.354965 -2.619378,4.6024797 7.47141,16.9481497 3.70205,4.529455 6.08139,9.711055 5.44322,15.24"
     id="path9"
     style="fill:#e03c31;stroke-width:0.63499999" />
  <path
     d="m 124.53802,69.423356 c 0.11875,-0.682625 0.0267,-1.323975 -0.26226,-1.651635 -0.38925,-0.44069 -4.75233,-0.4953 -6.01726,-0.47498 -2.05232,0.03302 -3.71221,0.29845 -5.755,0.508 -4.03733,0.414655 -8.01243,1.35255 -11.6859,3.10769 -7.312028,3.4925 -12.418698,8.8519 -14.998698,16.610965 -2.51778,7.574915 -1.59068,28.660724 -12.539985,31.200734 -2.92989,0.67881 -9.357995,-1.69545 -9.977755,-0.92711 -0.619125,0.76836 4.18846,5.32638 5.42544,7.86067 1.23698,2.53365 1.69545,8.32104 2.868295,8.34263 0.903605,0.0165 1.515745,-5.14477 7.466965,-11.6713 3.485515,-3.8227 10.58545,-6.2865 15.08379,-8.62775 2.49936,-1.30175 5.02857,-2.5654 7.462518,-3.98843 2.71589,-1.58877 5.54672,-3.98272 7.73875,-6.91197 -0.63881,0.4972 -0.13018,3.29501 1.84975,2.51396 1.00584,-0.39624 1.72657,-1.66243 2.69558,-3.51536 2.79717,-5.347339 8.89825,-22.324064 10.64641,-32.376114"
     id="path11"
     style="fill:#a05eb5;stroke-width:0.63499999" />
  <path
     d="m 64.366692,100.96762 c -1.59512,-3.829054 -3.971925,-7.308854 -6.524625,-10.562594 -3.38328,-4.307205 -7.299325,-8.15848 -11.23188,-11.95832 -4.13385,-3.99415 -8.377555,-7.87654 -12.404725,-11.97737 -5.804535,-5.909945 -7.87527,-9.88314 -10.6299,-16.906875 -0.927735,-2.366645 -2.540635,-4.373245 -4.55295,-5.90931 -1.14935,-0.87757 -2.31267,-1.73736 -3.4671,-2.60858 -0.64897,-0.489585 -1.33985,-0.936625 -1.922145,-1.495425 -0.47371,-0.45466 -1.0922,-0.51308 -1.39319,0.07175 -2.5019002,4.850765 0.240665,8.88365 2.31394,13.156565 a 21.891625,21.891625 0 0 1 0.982345,2.37236 c 1.91262,5.492115 0.46736,18.27276 0.48133,21.229955 0.04635,9.7028 6.863715,17.324705 8.53821,18.983325 3.373755,3.342005 6.821805,5.330829 7.701915,4.443095 0.43434,-0.438785 0.158115,-1.49987 -0.63881,-2.86385 a 52.78628,52.78628 0 0 0 4.5593,1.27 c 4.67487,1.08204 9.34085,2.362204 13.82522,4.081784 5.177155,1.98628 8.93191,5.04 13.23594,8.48995 0.551815,0.44323 1.8288,1.76213 2.520315,1.611 1.68783,-0.37021 -0.10033,-8.32676 -1.392555,-11.42683"
     id="path13"
     style="fill:#485cc7;stroke-width:0.63499999" />
  <path
     d="m 78.378602,13.166166 c 3.80619,-1.77292 12.08659,13.2715 5.1181,17.81175 -6.970395,4.539615 -1.001395,11.88466 2.63652,11.9888 8.25119,0.23622 -2.936875,8.368665 -0.42164,14.2875 5.43878,12.8016 -3.286125,25.21839 -5.60705,24.97328 1.8288,-17.332325 -13.65885,-28.195905 -11.146155,-31.81858 1.0795,-1.55702 3.766185,-0.88011 4.63169,-0.61087 a 0.363855,0.363855 0 0 0 0.42291,-0.163195 c 3.653155,-6.543675 -8.1026,-12.806045 -11.9634,-13.538835 -4.58216,-0.86995 -5.92201,-5.742305 -5.611495,-8.92175 0.31115,-3.178175 3.966845,-6.04266 6.7564,-1.063625 1.5875,2.83591 6.8199,6.580505 8.86714,7.9756 0.51562,0.352425 1.21412,0.08255 1.38176,-0.518795 1.429385,-5.141595 -10.448925,-14.44752 -12.82446,-17.539335 -3.21945,-4.18973 -0.16129,-10.5898947 7.38759,-7.6561947 6.505575,2.5272997 4.92125,18.4105547 8.15467,18.1641747 4.0767,-0.31115 -3.189605,-10.85215 2.21742,-13.369925"
     id="path15"
     style="fill:#f1be48;stroke-width:0.63499999" />
  <path
     d="m 38.332962,12.075236 c 1.18618,0.5715 -0.730885,1.227455 -1.15316,1.402715 -0.58039,0.2413 -7.922895,3.90271 -11.1887,13.721715 -2.1463,6.450965 -1.152525,11.4681 -2.078355,11.489055 -1.306195,0.02858 -4.7625,-3.58521 -8.4074,-3.92049 -5.1054,-0.4699 -10.1936552,1.929765 -13.5331202,5.414645 -4.340225,4.529455 -2.51142501,-15.33779 15.6502102,-13.57249 3.23088,-18.3908697 15.50416,-15.71498 16.85036,-15.62862 1.1303,0.07302 2.74193,0.55372 3.860165,1.09347"
     id="path17"
     style="fill:#00a3e0;stroke-width:0.63499999" />
</svg>
